<?xml version="1.0" encoding="UTF-8" standalone="no"?>
<svg
   xmlns:dc="http://purl.org/dc/elements/1.1/"
   xmlns:cc="http://creativecommons.org/ns#"
   xmlns:rdf="http://www.w3.org/1999/02/22-rdf-syntax-ns#"
   xmlns:svg="http://www.w3.org/2000/svg"
   xmlns="http://www.w3.org/2000/svg"
   xmlns:sodipodi="http://sodipodi.sourceforge.net/DTD/sodipodi-0.dtd"
   xmlns:inkscape="http://www.inkscape.org/namespaces/inkscape"
   id="Layer_1"
   viewBox="0 0 292.89563 107.655"
   version="1.1"
   sodipodi:docname="controls - ltd.svg"
   inkscape:version="0.92.4 (5da689c313, 2019-01-14)"
   width="292.89563"
   height="107.655">
  <metadata
     id="metadata11164">
    <rdf:RDF>
      <cc:Work
         rdf:about="">
        <dc:format>image/svg+xml</dc:format>
        <dc:type
           rdf:resource="http://purl.org/dc/dcmitype/StillImage" />
        <dc:title></dc:title>
      </cc:Work>
    </rdf:RDF>
  </metadata>
  <sodipodi:namedview
     pagecolor="#ffffff"
     bordercolor="#666666"
     borderopacity="1"
     objecttolerance="10"
     gridtolerance="10"
     guidetolerance="10"
     inkscape:pageopacity="0"
     inkscape:pageshadow="2"
     inkscape:window-width="1920"
     inkscape:window-height="1051"
     id="namedview11162"
     showgrid="false"
     inkscape:zoom="1.9861111"
     inkscape:cx="274.3241"
     inkscape:cy="55.568576"
     inkscape:window-x="-9"
     inkscape:window-y="-9"
     inkscape:window-maximized="1"
     inkscape:current-layer="Layer_1"
     fit-margin-top="0"
     fit-margin-left="0"
     fit-margin-right="0"
     fit-margin-bottom="0" />
  <defs
     id="defs5593">
    <style
       id="style5588">.cls-1{fill:#c64e5f;}.cls-2,.cls-3,.cls-4,.cls-5,.cls-6,.cls-7,.cls-8,.cls-9,.cls-10,.cls-11,.cls-12,.cls-13,.cls-14,.cls-15,.cls-16,.cls-17,.cls-18,.cls-19,.cls-20,.cls-21,.cls-22,.cls-23,.cls-24,.cls-25,.cls-26{fill:#bababa;}.cls-2,.cls-4,.cls-5,.cls-27,.cls-7,.cls-8,.cls-11,.cls-12,.cls-13,.cls-14,.cls-15,.cls-28,.cls-29,.cls-17,.cls-30,.cls-31,.cls-18,.cls-19,.cls-20,.cls-21,.cls-22,.cls-23,.cls-24,.cls-32,.cls-25,.cls-26{font-family:Heebo-Medium, Heebo;font-variation-settings:'wght' 500;}.cls-2,.cls-33,.cls-13,.cls-17,.cls-18,.cls-19,.cls-32{font-size:7.67px;}.cls-2,.cls-32{letter-spacing:.04em;}.cls-34{fill:#b4ada7;}.cls-35{fill:#7bc044;}.cls-36,.cls-3,.cls-37,.cls-38,.cls-39,.cls-6,.cls-40,.cls-41,.cls-42,.cls-43,.cls-44,.cls-45,.cls-9,.cls-46,.cls-47,.cls-48,.cls-49,.cls-50,.cls-51,.cls-52,.cls-53,.cls-54,.cls-55,.cls-56,.cls-57,.cls-58,.cls-59,.cls-60,.cls-61,.cls-62,.cls-63,.cls-64,.cls-65,.cls-66,.cls-67,.cls-68,.cls-69,.cls-70,.cls-16,.cls-71,.cls-72,.cls-73,.cls-74,.cls-75,.cls-76,.cls-77,.cls-78,.cls-79,.cls-80,.cls-81,.cls-82,.cls-83,.cls-84,.cls-85,.cls-86,.cls-87,.cls-88,.cls-89,.cls-90,.cls-91,.cls-92,.cls-93,.cls-94{stroke-miterlimit:10;}.cls-36,.cls-37,.cls-95,.cls-96,.cls-38,.cls-97,.cls-39,.cls-40,.cls-98,.cls-99,.cls-41,.cls-42,.cls-100,.cls-101,.cls-44,.cls-102,.cls-103,.cls-104,.cls-105,.cls-106,.cls-107,.cls-46,.cls-48,.cls-50,.cls-108,.cls-109,.cls-51,.cls-110,.cls-111,.cls-53,.cls-55,.cls-56,.cls-112,.cls-57,.cls-58,.cls-113,.cls-59,.cls-114,.cls-115,.cls-116,.cls-60,.cls-61,.cls-62,.cls-65,.cls-117,.cls-118,.cls-119,.cls-120,.cls-67,.cls-121,.cls-122,.cls-123,.cls-124,.cls-68,.cls-125,.cls-69,.cls-70,.cls-126,.cls-127,.cls-128,.cls-129,.cls-130,.cls-131,.cls-132,.cls-72,.cls-133,.cls-73,.cls-134,.cls-74,.cls-75,.cls-135,.cls-77,.cls-136,.cls-78,.cls-137,.cls-79,.cls-80,.cls-81,.cls-82,.cls-83,.cls-84,.cls-138,.cls-139,.cls-140,.cls-86,.cls-141,.cls-88,.cls-90,.cls-142,.cls-143,.cls-92,.cls-144,.cls-145{fill:none;}.cls-36,.cls-60,.cls-74,.cls-83,.cls-88{stroke-width:.25px;}.cls-36,.cls-62{stroke:#5b5a5d;}.cls-146{fill:#99999a;}.cls-147{fill:#7b8188;}.cls-148,.cls-23{letter-spacing:.04em;}.cls-3,.cls-95,.cls-38,.cls-46,.cls-49,.cls-109,.cls-56,.cls-78,.cls-88{stroke:#414142;}.cls-37,.cls-44,.cls-52,.cls-76{stroke:#424242;}.cls-37,.cls-52{stroke-width:.41px;}.cls-149{fill:#f15b2d;}.cls-4,.cls-22{font-size:13.63px;}.cls-95,.cls-96,.cls-97,.cls-98,.cls-99,.cls-100,.cls-101,.cls-102,.cls-103,.cls-104,.cls-105,.cls-106,.cls-107,.cls-108,.cls-109,.cls-110,.cls-111,.cls-150,.cls-112,.cls-113,.cls-114,.cls-115,.cls-116,.cls-117,.cls-118,.cls-119,.cls-120,.cls-121,.cls-122,.cls-123,.cls-124,.cls-125,.cls-126,.cls-127,.cls-128,.cls-129,.cls-130,.cls-132,.cls-133,.cls-134,.cls-135,.cls-136,.cls-137,.cls-138,.cls-139,.cls-140,.cls-141,.cls-151,.cls-142,.cls-143,.cls-144,.cls-145{stroke-linejoin:round;}.cls-95,.cls-96,.cls-97,.cls-98,.cls-99,.cls-101,.cls-102,.cls-103,.cls-104,.cls-105,.cls-106,.cls-107,.cls-49,.cls-108,.cls-109,.cls-110,.cls-111,.cls-112,.cls-113,.cls-114,.cls-115,.cls-116,.cls-117,.cls-118,.cls-119,.cls-120,.cls-123,.cls-124,.cls-125,.cls-126,.cls-127,.cls-128,.cls-130,.cls-134,.cls-135,.cls-136,.cls-137,.cls-139,.cls-140,.cls-141,.cls-151,.cls-142,.cls-143,.cls-144,.cls-145{stroke-linecap:round;}.cls-152{font-size:10px;}.cls-152,.cls-153,.cls-154,.cls-155,.cls-156,.cls-157,.cls-158,.cls-159,.cls-160,.cls-161,.cls-162,.cls-163,.cls-164,.cls-165,.cls-166,.cls-167,.cls-168,.cls-169,.cls-170,.cls-171{font-family:Heebo-Regular, Heebo;font-variation-settings:'wght' 400;}.cls-152,.cls-172,.cls-154,.cls-173,.cls-156,.cls-157,.cls-174,.cls-49,.cls-175,.cls-176,.cls-177,.cls-178,.cls-167,.cls-179,.cls-32{fill:#414142;}.cls-153{font-size:4.68px;}.cls-153,.cls-160,.cls-161,.cls-163,.cls-166,.cls-180,.cls-181{fill:#211e1e;}.cls-182{fill:#dbd560;}.cls-96,.cls-100{stroke:#3b3b3c;stroke-width:.71px;}.cls-183{fill:#e8e2d0;}.cls-184{letter-spacing:-.06em;}.cls-185,.cls-175{letter-spacing:0em;}.cls-186{fill:#d2ad2a;}.cls-38{stroke-width:.63px;}.cls-187{fill:#be2c3a;}.cls-97,.cls-99,.cls-113,.cls-116,.cls-120,.cls-122,.cls-123,.cls-135,.cls-137,.cls-142,.cls-144{stroke:#e6282b;}.cls-97,.cls-41,.cls-107,.cls-64,.cls-121,.cls-124,.cls-133,.cls-134,.cls-85,.cls-140{stroke-width:2px;}.cls-188{fill:#aeb636;}.cls-5{letter-spacing:0em;}.cls-5,.cls-8,.cls-12,.cls-14,.cls-31,.cls-23{font-size:7.35px;}.cls-39{stroke-width:.17px;}.cls-39,.cls-48,.cls-50,.cls-53,.cls-58,.cls-59,.cls-114,.cls-61,.cls-65,.cls-69,.cls-73,.cls-75,.cls-77,.cls-80,.cls-83,.cls-84,.cls-86,.cls-92{stroke:#211e1e;}.cls-6,.cls-40,.cls-43,.cls-63,.cls-16,.cls-89,.cls-90,.cls-91,.cls-93{stroke-width:.08px;}.cls-6,.cls-63,.cls-90,.cls-91{stroke:#dd5f70;}.cls-40,.cls-43,.cls-16,.cls-93{stroke:#6e6f71;}.cls-189{letter-spacing:0em;}.cls-190{fill:#ef413e;}.cls-191,.cls-192,.cls-155,.cls-158,.cls-162,.cls-164,.cls-169{fill:#fff;}.cls-27{fill:#8e464f;}.cls-27,.cls-30{font-size:13px;}.cls-98,.cls-101,.cls-105,.cls-108,.cls-117,.cls-124,.cls-132,.cls-136,.cls-143{stroke:#231f20;}.cls-98,.cls-49,.cls-115,.cls-123,.cls-128,.cls-151{stroke-width:3px;}.cls-99,.cls-108,.cls-127{stroke-width:20px;}.cls-41,.cls-87{stroke:#323031;}.cls-193{font-size:6.53px;}.cls-193,.cls-33,.cls-194{fill:#747578;font-family:Heebo-Black, Heebo;font-variation-settings:'wght' 900;}.cls-7{font-size:3.41px;letter-spacing:.04em;}.cls-195{letter-spacing:-.02em;}.cls-42{stroke:#7f8081;stroke-width:.07px;}.cls-196{letter-spacing:0em;}.cls-197{letter-spacing:-.04em;}.cls-8{letter-spacing:.32em;}.cls-198{fill:#d79528;}.cls-101,.cls-104,.cls-135{stroke-width:15px;}.cls-199{letter-spacing:-.02em;}.cls-200{fill:#808184;}.cls-172{font-size:41.08px;}.cls-172,.cls-201,.cls-173,.cls-174,.cls-175,.cls-177,.cls-178,.cls-179{font-family:Rajdhani-SemiBold, Rajdhani;}.cls-43,.cls-202{fill:#2c292a;}.cls-44,.cls-46,.cls-67,.cls-76{stroke-width:.5px;}.cls-201,.cls-173{font-size:20px;}.cls-45{stroke-width:1.63px;}.cls-45,.cls-64,.cls-70,.cls-85{stroke:#383739;}.cls-45,.cls-203,.cls-85{fill:#1a1a1a;}.cls-204{fill:#a7a9ac;}.cls-205{letter-spacing:-.02em;}.cls-102,.cls-103,.cls-104,.cls-110,.cls-125,.cls-127,.cls-128,.cls-140,.cls-145{stroke:#211e1f;}.cls-102,.cls-137{stroke-width:7px;}.cls-206{letter-spacing:0em;}.cls-103,.cls-105,.cls-116,.cls-126,.cls-130,.cls-139,.cls-141{stroke-width:5px;}.cls-207{letter-spacing:0em;}.cls-208{letter-spacing:-.02em;}.cls-209{fill:#808083;}.cls-106{stroke:#2d2f6c;stroke-width:21px;}.cls-210{letter-spacing:-.07em;}.cls-107,.cls-121{stroke:#37b04a;}.cls-192,.cls-211,.cls-181{fill-rule:evenodd;}.cls-9,.cls-54,.cls-55{stroke:#909295;}.cls-212{fill:#cfd2d3;}.cls-213{fill:#ddd6d3;}.cls-154{font-size:13.5px;}.cls-47,.cls-66{fill:#60b356;stroke:#cfd0d3;}.cls-47,.cls-70,.cls-72{stroke-width:.61px;}.cls-155{font-size:8px;}.cls-156,.cls-168{font-size:18px;}.cls-214{fill:#a4833a;}.cls-157{font-size:18.86px;}.cls-215,.cls-54{fill:#175c94;}.cls-174{font-size:23px;}.cls-48{stroke-width:.28px;}.cls-175,.cls-216{font-size:30px;}.cls-217{fill:#7b776c;}.cls-218{fill:#505052;}.cls-219{fill:#2b9446;}.cls-220{fill:#dbdddd;}.cls-50{stroke-width:.39px;}.cls-221{letter-spacing:-.03em;}.cls-222{fill:#7cc244;}.cls-223{fill:#929497;}.cls-109{stroke-width:9px;}.cls-224{letter-spacing:.02em;}.cls-225{fill:#ed3837;}.cls-226{letter-spacing:0em;}.cls-227{letter-spacing:0em;}.cls-228{fill:#5b5a5d;}.cls-229{letter-spacing:0em;}.cls-230{fill:#846c30;}.cls-158,.cls-159,.cls-163{font-size:9.33px;}.cls-231,.cls-179{font-size:25px;}.cls-232{letter-spacing:0em;}.cls-233{fill:#404042;}.cls-51{stroke-width:.81px;}.cls-51,.cls-68,.cls-71{stroke:#e8e8e8;}.cls-11{font-size:13.08px;}.cls-52,.cls-76{fill:#e9e8e9;}.cls-110,.cls-122,.cls-132,.cls-136,.cls-144{stroke-width:12px;}.cls-111{stroke-width:.51px;}.cls-111,.cls-119,.cls-94{stroke:#010101;}.cls-234,.cls-31{fill:#1c1c1c;}.cls-53{stroke-width:.22px;}.cls-235{fill:#927738;}.cls-159,.cls-236{fill:#819355;}.cls-12{letter-spacing:1.3em;}.cls-237{letter-spacing:-.1em;}.cls-238{fill:#363436;}.cls-150{stroke:#2d2a2b;}.cls-150,.cls-66{stroke-width:.75px;}.cls-150,.cls-239{fill:#333132;}.cls-240{fill:#636467;}.cls-56,.cls-78{stroke-width:4px;}.cls-241,.cls-165{fill:#9a9ba0;}.cls-242{letter-spacing:0em;}.cls-160{font-size:13.49px;}.cls-112{stroke-width:25px;}.cls-112,.cls-82{stroke:#434342;}.cls-243{fill:#37b04a;}.cls-244{fill:#363435;}.cls-57,.cls-67,.cls-89{stroke:#fff;}.cls-57,.cls-92{stroke-width:.38px;}.cls-58{stroke-width:.16px;}.cls-245{fill:#ed2a2b;}.cls-113{stroke-width:11px;}.cls-59{stroke-width:2.02px;}.cls-246,.cls-63{fill:#d93b37;}.cls-161{font-size:10.12px;}.cls-114{stroke-width:1.33px;}.cls-115{stroke:#b9bbbd;}.cls-247,.cls-78{opacity:.8;}.cls-248{fill:#333;}.cls-249{letter-spacing:-.03em;}.cls-162{font-size:10.44px;}.cls-60{stroke:#343637;}.cls-61{stroke-width:.18px;}.cls-250{letter-spacing:0em;}.cls-251{letter-spacing:0em;}.cls-252{fill:#6d6e71;}.cls-253{fill:#d0d2d3;}.cls-254{fill:#948b8a;}.cls-64,.cls-255{fill:#121212;}.cls-65{stroke-width:.21px;}.cls-256{fill:#018fb9;}.cls-117,.cls-120,.cls-125{stroke-width:6px;}.cls-257{fill:#f89b53;}.cls-258{letter-spacing:-.01em;}.cls-211{fill:#010101;}.cls-259{fill:#0d0d0d;}.cls-260{letter-spacing:0em;}.cls-261{letter-spacing:0em;}.cls-262{fill:#080808;}.cls-118{stroke:#2b2929;stroke-width:10px;}.cls-263{letter-spacing:.04em;}.cls-119{stroke-width:.8px;}.cls-264{fill:#323031;}.cls-13{letter-spacing:1.3em;}.cls-164,.cls-170{font-size:6.96px;}.cls-265{letter-spacing:0em;}.cls-266{letter-spacing:0em;}.cls-267{letter-spacing:-.02em;}.cls-268{fill:#aea2a0;}.cls-269{fill:#0d91ce;}.cls-270{fill:#314b6c;}.cls-271{fill:#3b3b3c;}.cls-272{fill:#616262;}.cls-165{font-size:5.68px;}.cls-273,.cls-89,.cls-274{fill:#6e6f71;}.cls-275{fill:#e45333;}.cls-276{letter-spacing:0em;}.cls-277{fill:#c1baae;}.cls-278{fill:#383739;}.cls-15{font-size:6.71px;}.cls-69{stroke-width:.18px;}.cls-28{fill:#835d25;font-size:13.07px;}.cls-29{fill:#892129;font-size:8.22px;}.cls-279{fill:#e5e5e5;}.cls-126{stroke:#2c3a8c;}.cls-280{fill:#171717;}.cls-281,.cls-94{fill:#212121;}.cls-282{letter-spacing:-.08em;}.cls-17{letter-spacing:.01em;}.cls-166{font-size:8.29px;}.cls-283{fill:#262223;}.cls-71,.cls-284{fill:#e8e8e8;}.cls-285{letter-spacing:0em;}.cls-286{fill:#271e21;}.cls-287{letter-spacing:-.02em;}.cls-288{clip-path:url(#clippath);}.cls-129{stroke-width:1.81px;}.cls-129,.cls-138,.cls-139{stroke:#babcbe;}.cls-130{stroke:#754e2a;}.cls-30{fill:#7e6b2b;}.cls-289{fill:#808285;}.cls-290{font-size:33px;}.cls-291{fill:#434342;}.cls-292{letter-spacing:-.11em;}.cls-293{fill:#b2a696;}.cls-294{letter-spacing:0em;}.cls-31{letter-spacing:.02em;}.cls-295{fill:#bc2031;}.cls-72{stroke:#929497;}.cls-296{fill:#f1e902;}.cls-297{letter-spacing:-.03em;}.cls-133,.cls-134{stroke:#d5dc28;}.cls-298{fill:#141414;}.cls-299{fill:#999;}.cls-300{letter-spacing:0em;}.cls-73{stroke-width:.27px;}.cls-301{fill:#079247;}.cls-74{stroke:#ab6b29;}.cls-194{font-size:12.24px;}.cls-302{fill:#a5a5a9;}.cls-303{fill:#6a5f27;}.cls-75{stroke-width:.17px;}.cls-304{fill:#323130;}.cls-19{letter-spacing:0em;}.cls-305{fill:#d5dc28;}.cls-77{stroke-width:.37px;}.cls-306{fill:#857133;}.cls-307{font-size:46.34px;}.cls-20{font-size:8.45px;}.cls-79{stroke:#808083;}.cls-308{fill:#3e3e3f;}.cls-309{fill:#2b2929;}.cls-80{stroke-width:.09px;}.cls-81{stroke:#c1baae;stroke-width:.34px;}.cls-310{letter-spacing:0em;}.cls-311{fill:#191919;}.cls-82{stroke-width:.56px;}.cls-178{font-size:32.05px;}.cls-312{letter-spacing:0em;}.cls-84{stroke-width:.12px;}.cls-313{letter-spacing:-.01em;}.cls-314{letter-spacing:-.01em;}.cls-167{font-size:14px;}.cls-21{font-size:11.93px;letter-spacing:0em;}.cls-315{fill:#bc984b;}.cls-316{letter-spacing:-.02em;}.cls-317{letter-spacing:0em;}.cls-318{fill:#955f25;}.cls-138{stroke-width:1.83px;}.cls-319{fill:#f59222;}.cls-22{letter-spacing:0em;}.cls-320{letter-spacing:-.06em;}.cls-321{letter-spacing:0em;}.cls-86{stroke-width:.1px;}.cls-322{fill:#e4424f;}.cls-323{fill:#b59248;}.cls-87{fill:#3c3b3c;stroke-width:1.03px;}.cls-324{fill:#4e4e50;}.cls-141{stroke:#e8282b;}.cls-216{letter-spacing:0em;}.cls-325{fill:#272660;}.cls-326{letter-spacing:-.06em;}.cls-151{fill:#d7de27;stroke:#d7de27;}.cls-327{letter-spacing:0em;}.cls-328{fill:#595a5c;}.cls-329,.cls-93{fill:#231f20;}.cls-24{font-size:12.3px;}.cls-330{letter-spacing:-.06em;}.cls-25{font-size:10.33px;}.cls-331{fill:#c6c7c9;}.cls-332{letter-spacing:-.03em;}.cls-333{fill:#f2f2f2;}.cls-169{font-size:16px;}.cls-170{fill:#a4a7a9;}.cls-334{letter-spacing:-.01em;}.cls-142,.cls-143,.cls-145{stroke-width:8px;}.cls-91{fill:#b42e2c;}.cls-335{letter-spacing:-.06em;}.cls-336{letter-spacing:0em;}.cls-337{letter-spacing:0em;}.cls-26{font-size:10.61px;}.cls-171{fill:#a2a63c;font-size:8.62px;}.cls-338{letter-spacing:-.06em;}.cls-339{fill:#dfd6c8;}.cls-274{opacity:.32;}.cls-340{fill:#414042;}.cls-341{letter-spacing:-.02em;}.cls-342{letter-spacing:-.02em;}</style>
  </defs>
  <g
     id="g7983"
     transform="translate(-707.01438,-628.91)" />
  <line
     class="cls-105"
     x1="18.625633"
     y1="95.089996"
     x2="254.25563"
     y2="95.089996"
     id="line10407"
     style="fill:none;stroke:#231f20;stroke-width:5px;stroke-linecap:round;stroke-linejoin:round" />
  <line
     class="cls-141"
     x1="9.6656113"
     y1="98.740021"
     x2="254.26564"
     y2="98.740021"
     id="line10409"
     style="fill:none;stroke:#e8282b;stroke-width:5px;stroke-linecap:round;stroke-linejoin:round" />
  <line
     class="cls-139"
     x1="2.5356061"
     y1="102.16"
     x2="254.26564"
     y2="102.16"
     id="line10411"
     style="fill:none;stroke:#babcbe;stroke-width:5px;stroke-linecap:round;stroke-linejoin:round" />
  <g
     id="g11123"
     transform="translate(-707.01438,-628.91)">
    <polygon
       class="cls-150"
       points="895.18,736.19 895.18,733.14 883.47,733.14 885.74,736.19 "
       id="polygon11029"
       style="fill:#333132;stroke:#2d2a2b;stroke-width:0.75px;stroke-linejoin:round" />
    <polygon
       class="cls-150"
       points="970.58,736.19 970.58,733.14 982.64,733.14 980.3,736.19 "
       id="polygon11031"
       style="fill:#333132;stroke:#2d2a2b;stroke-width:0.75px;stroke-linejoin:round" />
    <polygon
       class="cls-289"
       points="900.95,637.92 915.19,637.92 915.62,637.57 915.62,630.27 914.36,628.91 901.73,628.91 900.43,630.27 900.43,637.48 "
       id="polygon11033"
       style="fill:#808285" />
    <rect
       class="cls-252"
       x="901.85999"
       y="637.91998"
       width="12.28"
       height="1.5700001"
       id="rect11035"
       style="fill:#6d6e71" />
    <g
       id="g11041">
      <polygon
         class="cls-238"
         points="923.31,639.58 925.06,643.16 890.99,643.16 892.65,639.66 "
         id="polygon11037"
         style="fill:#363436" />
      <path
         class="cls-239"
         d="m 925.3,643.31 h -34.56 l 1.8,-3.8 30.86,-0.09 1.89,3.88 z m -34.08,-0.3 h 33.59 l -1.6,-3.28 -30.48,0.09 -1.52,3.19 z"
         id="path11039"
         inkscape:connector-curvature="0"
         style="fill:#333132" />
    </g>
    <g
       id="g11047">
      <polygon
         class="cls-308"
         points="965.34,642.62 977.54,652.23 884.96,651.09 887.93,642.71 "
         id="polygon11043"
         style="fill:#3e3e3f" />
      <path
         class="cls-271"
         d="m 977.98,652.39 h -0.44 c 0,0 -92.79,-1.14 -92.79,-1.14 l 3.08,-8.69 h 0.11 l 77.46,-0.09 0.04,0.03 12.55,9.89 z m -92.81,-1.44 91.92,1.13 -11.81,-9.3 -77.25,0.09 -2.86,8.09 z"
         id="path11045"
         inkscape:connector-curvature="0"
         style="fill:#3b3b3c" />
    </g>
    <g
       id="g11053">
      <path
         class="cls-340"
         d="m 883.73,652.58 -0.09,11.36 h -17.56 c 0,0 0,6.99 0,6.99 l 17.56,-0.44 -0.17,62.65 h 11.71 c 0,0 0,3.06 0,3.06 h 75.4 v -3.06 h 11.97 c 0,0 -0.35,-62.65 -0.35,-62.65 l 17.47,0.44 v -6.99 H 982.2 c 0,0 0,-10.88 0,-10.88 -24.87,-4.89 -49.28,-6.73 -74.18,-6.95 -4.89,-0.05 -14.55,1.27 -21.76,4.37 -1.13,0.52 -2.53,1.22 -2.53,2.1 z"
         id="path11049"
         inkscape:connector-curvature="0"
         style="fill:#414042" />
      <path
         class="cls-271"
         d="m 970.58,736.42 h -75.4 c -0.13,0 -0.23,-0.1 -0.23,-0.23 v -2.83 h -11.48 c -0.06,0 -0.12,-0.02 -0.16,-0.07 -0.04,-0.05 -0.07,-0.1 -0.07,-0.16 l 0.17,-62.41 -17.33,0.43 c -0.08,0 -0.12,-0.02 -0.16,-0.06 -0.04,-0.04 -0.07,-0.1 -0.07,-0.16 v -6.99 c 0,-0.06 0.02,-0.12 0.07,-0.16 0.05,-0.04 0.1,-0.07 0.16,-0.07 h 17.34 c 0,0 0.09,-11.13 0.09,-11.13 0,-0.99 1.38,-1.71 2.67,-2.3 7.62,-3.28 17.45,-4.44 21.85,-4.39 27.78,0.24 51.36,2.45 74.22,6.95 0.11,0.02 0.18,0.11 0.18,0.22 v 10.65 h 17.25 c 0.13,0 0.23,0.1 0.23,0.23 v 6.99 c 0,0.06 -0.02,0.12 -0.07,0.16 -0.05,0.04 -0.08,0.07 -0.16,0.06 l -17.24,-0.43 0.35,62.41 c 0,0.06 -0.02,0.12 -0.07,0.16 -0.04,0.04 -0.1,0.07 -0.16,0.07 h -11.74 v 2.83 c 0,0.13 -0.1,0.23 -0.23,0.23 z m -75.18,-0.45 h 74.95 v -2.83 c 0,-0.13 0.1,-0.23 0.23,-0.23 h 11.74 l -0.35,-62.42 c 0,-0.06 0.02,-0.12 0.07,-0.16 0.04,-0.04 0.09,-0.06 0.16,-0.06 l 17.24,0.43 v -6.53 h -17.25 c -0.13,0 -0.23,-0.1 -0.23,-0.23 v -10.69 c -22.77,-4.47 -46.28,-6.66 -73.95,-6.91 -4.38,-0.04 -14.11,1.1 -21.66,4.35 -0.77,0.36 -2.4,1.1 -2.4,1.89 v 0 c 0,0 -0.09,11.36 -0.09,11.36 0,0.12 -0.1,0.22 -0.23,0.22 h -17.34 c 0,0 0,6.53 0,6.53 l 17.33,-0.43 c 0.09,0 0.12,0.02 0.16,0.06 0.04,0.04 0.07,0.1 0.07,0.16 l -0.17,62.42 h 11.48 c 0.13,0 0.23,0.1 0.23,0.23 v 2.83 z m -11.67,-83.39 z"
         id="path11051"
         inkscape:connector-curvature="0"
         style="fill:#3b3b3c" />
    </g>
    <path
       class="cls-271"
       d="m 886.88,733.35 c -0.12,0 -0.21,-0.1 -0.21,-0.21 v -82.91 c 0,-0.12 0.1,-0.21 0.21,-0.21 0.11,0 0.21,0.1 0.21,0.21 v 82.91 c 0,0.12 -0.1,0.21 -0.21,0.21 z"
       id="path11055"
       inkscape:connector-curvature="0"
       style="fill:#3b3b3c" />
    <path
       class="cls-271"
       d="m 979.36,733.35 c -0.12,0 -0.21,-0.1 -0.21,-0.21 l -0.31,-80.56 c 0,-0.12 0.09,-0.21 0.21,-0.21 v 0 c 0.12,0 0.21,0.1 0.21,0.21 l 0.31,80.56 c 0,0.12 -0.09,0.21 -0.21,0.21 z"
       id="path11057"
       inkscape:connector-curvature="0"
       style="fill:#3b3b3c" />
    <line
       class="cls-96"
       x1="982.41998"
       y1="720.28998"
       x2="883.51001"
       y2="720.28998"
       id="line11059"
       style="fill:none;stroke:#3b3b3c;stroke-width:0.70999998px;stroke-linecap:round;stroke-linejoin:round" />
    <path
       class="cls-271"
       d="m 982.2,670.7 h -98.56 c -0.12,0 -0.21,-0.1 -0.21,-0.21 0,-0.11 0.1,-0.21 0.21,-0.21 h 98.56 c 0.12,0 0.21,0.1 0.21,0.21 0,0.11 -0.1,0.21 -0.21,0.21 z"
       id="path11061"
       inkscape:connector-curvature="0"
       style="fill:#3b3b3c" />
    <line
       class="cls-100"
       x1="908.02002"
       y1="646.12"
       x2="908.03998"
       y2="642.66998"
       id="line11063"
       style="fill:none;stroke:#3b3b3c;stroke-width:0.70999998px;stroke-linejoin:round" />
    <rect
       class="cls-239"
       x="890.03998"
       y="674.19"
       width="85.959999"
       height="42.400002"
       rx="7.1999998"
       ry="7.1999998"
       id="rect11065"
       style="fill:#333132" />
    <g
       id="g11089">
      <path
         class="cls-191"
         d="m 936.34,678.39 c 0,0 0.04,0.1 0.07,0.14 0.73,1.27 1.47,2.53 2.2,3.8 0.03,0.05 0.07,0.11 0.09,0.16 -0.03,0.04 -0.06,0.03 -0.09,0.03 -0.28,0 -0.56,0 -0.83,0 -1.21,0 -2.42,0 -3.63,0 -0.06,0 -0.12,0 -0.18,0 -0.11,0.18 -0.22,0.37 -0.32,0.55 -0.1,0.18 -0.21,0.36 -0.31,0.54 -0.11,0.18 -0.21,0.37 -0.32,0.56 -0.1,0.18 -0.21,0.36 -0.31,0.54 -0.1,0.18 -0.22,0.36 -0.31,0.55 0.02,0.01 0.02,0.02 0.03,0.02 0,0 0,0 0.02,0 0.01,0 0.02,0 0.03,0 0.02,0 0.03,0 0.05,0 2.59,0 5.19,0 7.78,0 0,0 0.01,0 0.02,0 0.05,0.03 0.07,0.09 0.1,0.14 0.46,0.79 0.91,1.57 1.36,2.36 0.09,0.16 0.18,0.31 0.27,0.47 0.02,0.03 0.03,0.06 0.05,0.09 -0.02,0.04 -0.05,0.03 -0.07,0.03 -0.05,0 -0.11,0 -0.16,0 -3.68,0 -7.37,0 -11.05,0 h -0.2 c 0,0 -0.02,0.01 -0.02,0.01 0,0 0,0 -0.01,0.01 -0.02,0.03 -0.04,0.06 -0.06,0.09 -0.5,0.87 -1,1.73 -1.5,2.6 0,0 0,0.01 0,0.02 0,0 0,0 0,0.01 0,0 0,0 0,0.01 0,0 0.01,0 0.02,0 0.02,0 0.04,0 0.06,0 4.86,0 9.72,0 14.58,0 0,0 0.01,0 0.02,0 0,0 0.01,0 0.01,0 0,0 0,0 0.01,0.01 0.03,0.04 0.05,0.08 0.08,0.12 0.75,1.3 1.51,2.61 2.26,3.91 0,0 0,0.02 0.01,0.03 0,0 0,0.01 0,0.02 -0.01,0.03 -0.04,0.02 -0.07,0.02 -0.05,0 -0.1,0 -0.14,0 -7.94,0 -15.87,0 -23.81,0 h -0.19 c -0.03,-0.06 0,-0.09 0.03,-0.12 0.22,-0.38 0.43,-0.75 0.65,-1.12 2.4,-4.16 4.8,-8.31 7.21,-12.47 0.03,-0.05 0.05,-0.09 0.08,-0.14 0,-0.06 -0.04,-0.11 -0.07,-0.16 -0.52,-0.9 -1.04,-1.8 -1.56,-2.71 -0.03,-0.05 -0.05,-0.11 -0.08,-0.17 2.75,0 5.5,0 8.25,0 z"
         id="path11067"
         inkscape:connector-curvature="0"
         style="fill:#ffffff" />
      <path
         class="cls-191"
         d="m 924.34,678.39 c 0.17,0.29 0.33,0.58 0.5,0.87 0.38,0.67 0.77,1.33 1.15,2 0.03,0.05 0.05,0.09 0.07,0.13 0,0.02 0,0.02 0,0.03 0,0 0,0.01 0,0.02 -1.41,2.44 -2.82,4.88 -4.23,7.33 -0.02,0.04 -0.04,0.07 -0.07,0.11 0,0 -0.01,0.02 -0.03,0.03 h -2.55 c -0.03,0.06 0,0.09 0.03,0.12 0.25,0.43 0.5,0.86 0.74,1.29 0.14,0.24 0.27,0.47 0.41,0.71 0.03,0.05 0.05,0.09 0.08,0.14 -0.79,1.37 -1.58,2.73 -2.37,4.09 -0.07,0 -0.07,-0.05 -0.09,-0.09 -0.33,-0.56 -0.65,-1.13 -0.98,-1.69 -1.44,-2.49 -2.88,-4.98 -4.32,-7.48 -0.03,-0.05 -0.06,-0.1 -0.09,-0.15 -0.06,0.04 -0.07,0.09 -0.1,0.13 -0.65,1.13 -1.3,2.26 -1.96,3.38 -1.11,1.91 -2.21,3.83 -3.32,5.74 -0.03,0.05 -0.06,0.1 -0.09,0.15 -0.06,-0.05 -0.09,-0.11 -0.12,-0.16 -0.49,-0.85 -0.98,-1.7 -1.48,-2.55 -0.24,-0.41 -0.47,-0.81 -0.71,-1.22 -0.02,-0.04 -0.05,-0.08 -0.07,-0.12 -0.01,-0.01 -0.04,-0.02 -0.06,-0.02 0,-0.01 0,-0.02 0,-0.03 0.07,-0.03 0.09,-0.09 0.12,-0.15 0.6,-1.03 1.2,-2.07 1.79,-3.1 1.17,-2.02 2.34,-4.05 3.51,-6.07 0.03,-0.05 0.05,-0.09 0.07,-0.14 -0.03,-0.05 -0.05,-0.09 -0.07,-0.13 -0.52,-0.9 -1.04,-1.79 -1.55,-2.69 -0.07,-0.12 -0.14,-0.25 -0.22,-0.37 -0.02,-0.03 -0.04,-0.07 -0.02,-0.11 5.34,0 10.67,0 16.01,0 z m -5.58,7.41 c 0.03,-0.05 0.06,-0.1 0.09,-0.14 0.22,-0.38 0.44,-0.77 0.67,-1.15 0.35,-0.61 0.71,-1.22 1.06,-1.83 0.03,-0.04 0.07,-0.08 0.06,-0.14 h -6.13 c -0.03,0.05 -0.06,0.1 -0.09,0.15 -0.36,0.61 -0.71,1.23 -1.07,1.84 -0.22,0.38 -0.44,0.77 -0.66,1.15 -0.02,0.03 -0.06,0.07 -0.03,0.12 h 6.12 z"
         id="path11069"
         inkscape:connector-curvature="0"
         style="fill:#ffffff" />
      <path
         class="cls-191"
         d="m 959.57,678.42 c -0.29,0.5 -0.58,1.01 -0.87,1.51 -2.92,5.05 -5.84,10.11 -8.76,15.16 -0.03,0.06 -0.06,0.11 -0.1,0.17 -0.06,-0.02 -0.07,-0.07 -0.09,-0.11 -0.42,-0.73 -0.85,-1.46 -1.27,-2.19 -2.77,-4.79 -5.54,-9.59 -8.31,-14.38 -0.03,-0.06 -0.09,-0.11 -0.08,-0.19 1.58,0 3.17,0 4.75,0 0.03,0.05 0.05,0.09 0.08,0.14 1.03,1.79 2.07,3.58 3.1,5.37 0.57,0.99 1.14,1.98 1.72,2.97 0.03,0.05 0.05,0.1 0.1,0.14 0.03,-0.05 0.06,-0.1 0.09,-0.14 0.54,-0.93 1.08,-1.87 1.62,-2.8 1.09,-1.89 2.18,-3.78 3.28,-5.67 1.57,0 3.14,0 4.72,0 0.02,0 0.02,0 0.03,0.03 z"
         id="path11071"
         inkscape:connector-curvature="0"
         style="fill:#ffffff" />
      <path
         class="cls-275"
         d="m 915.52,703.23 c -0.05,-0.05 -0.13,-0.06 -0.19,-0.06 -0.63,-0.09 -1.31,-0.53 -1.49,-1.42 -0.13,-0.64 0.03,-1.21 0.51,-1.66 0.22,-0.2 0.48,-0.34 0.76,-0.42 0.64,-0.17 1.23,-0.07 1.76,0.33 0.35,0.26 0.57,0.61 0.64,1.04 0.15,0.95 -0.34,1.9 -1.42,2.13 -0.1,0.02 -0.2,0.02 -0.29,0.08 h -0.29 z m -0.82,-1.87 c 0,0.5 0.37,1 0.98,1 0.62,0 0.98,-0.51 0.97,-1.04 0,-0.49 -0.47,-0.91 -1,-0.89 -0.49,0.01 -0.97,0.43 -0.94,0.94 z"
         id="path11073"
         inkscape:connector-curvature="0"
         style="fill:#e45333" />
      <path
         class="cls-275"
         d="m 930.02,703.23 c -0.06,-0.05 -0.14,-0.05 -0.21,-0.07 -0.74,-0.11 -1.35,-0.66 -1.49,-1.45 -0.05,-0.28 -0.05,-0.56 0.03,-0.84 0.14,-0.48 0.45,-0.83 0.89,-1.06 0.32,-0.17 0.66,-0.25 1.02,-0.22 0.59,0.04 1.08,0.27 1.45,0.75 0.27,0.36 0.37,0.77 0.32,1.22 -0.03,0.24 -0.09,0.47 -0.2,0.69 -0.28,0.52 -0.71,0.81 -1.28,0.92 -0.08,0.01 -0.16,0.01 -0.23,0.07 h -0.29 z m 1.11,-1.88 c 0.02,-0.5 -0.46,-0.93 -0.97,-0.93 -0.51,0 -0.97,0.41 -0.98,0.9 0,0.51 0.35,1.02 0.96,1.03 0.6,0 0.98,-0.48 0.98,-1 z"
         id="path11075"
         inkscape:connector-curvature="0"
         style="fill:#e45333" />
      <path
         class="cls-275"
         d="m 921.7,703.07 c -0.02,-0.16 -0.02,-3.2 0,-3.34 0.03,0 0.07,-0.02 0.1,-0.02 0.41,0 0.82,0 1.23,0 0.13,0 0.27,0.02 0.39,0.06 0.28,0.1 0.44,0.29 0.49,0.58 0.03,0.14 0.03,0.29 0,0.43 -0.03,0.18 -0.12,0.33 -0.27,0.44 -0.02,0.01 -0.04,0.03 -0.07,0.06 0.05,0.02 0.08,0.03 0.12,0.04 0.32,0.08 0.49,0.29 0.54,0.6 0.02,0.14 0.03,0.27 0,0.41 -0.05,0.27 -0.19,0.46 -0.42,0.59 -0.16,0.09 -0.33,0.14 -0.5,0.15 -0.17,0.01 -0.34,0.02 -0.51,0.02 -0.31,0 -0.62,0 -0.93,0 -0.06,0 -0.12,0.01 -0.18,-0.02 z m 1.23,-2.05 c 0,0 0.04,-0.02 0.06,-0.03 0.13,-0.09 0.18,-0.21 0.15,-0.35 -0.03,-0.14 -0.12,-0.22 -0.28,-0.25 -0.06,0 -0.13,-0.02 -0.19,-0.02 -0.04,0 -0.07,0 -0.11,0.01 -0.03,0.06 -0.02,0.12 -0.02,0.18 0,0.46 0,0.93 0,1.39 0,0.12 0,0.25 0,0.37 0,0.04 0.01,0.07 0.02,0.1 0.11,0.03 0.22,0.02 0.33,0 0.09,-0.01 0.19,-0.03 0.28,-0.06 0.11,-0.04 0.18,-0.11 0.2,-0.23 0.04,-0.21 -0.04,-0.37 -0.24,-0.42 -0.04,0 -0.07,-0.02 -0.11,-0.03 -0.03,0 -0.06,-0.01 -0.09,-0.02 -0.03,-0.13 -0.03,-0.46 -0.01,-0.66 z"
         id="path11077"
         inkscape:connector-curvature="0"
         style="fill:#e45333" />
      <path
         class="cls-275"
         d="m 908.42,701.21 c 0.06,-0.02 0.1,-0.04 0.14,-0.06 0.11,-0.05 0.17,-0.14 0.19,-0.26 0.05,-0.25 -0.06,-0.43 -0.31,-0.5 -0.12,-0.03 -0.25,-0.05 -0.38,-0.02 0,0.03 -0.02,0.06 -0.02,0.09 0,0.05 0,0.11 0,0.16 0,0.75 0,1.51 0,2.26 0,0.06 0,0.13 -0.02,0.19 -0.03,0 -0.05,0.02 -0.08,0.02 -0.24,0 -0.47,0 -0.71,0 -0.01,0 -0.03,-0.01 -0.05,-0.02 0,-0.02 -0.01,-0.04 -0.01,-0.06 0,-1.09 0,-2.18 0,-3.27 0.04,0 0.06,-0.02 0.09,-0.02 0.47,0 0.94,0 1.41,0 0.12,0 0.23,0.03 0.34,0.07 0.38,0.14 0.59,0.41 0.63,0.81 0.02,0.18 0,0.36 -0.06,0.54 -0.1,0.26 -0.27,0.44 -0.54,0.53 -0.04,0.01 -0.08,0.03 -0.12,0.05 0.07,0.13 0.17,0.23 0.25,0.34 0.09,0.12 0.18,0.23 0.26,0.34 0.08,0.11 0.17,0.22 0.25,0.33 0.08,0.11 0.17,0.22 0.26,0.34 -0.04,0.01 -0.06,0.03 -0.08,0.03 -0.29,0 -0.59,0 -0.88,0 -0.07,0 -0.11,-0.03 -0.14,-0.08 -0.13,-0.21 -0.27,-0.42 -0.4,-0.64 -0.03,-0.05 -0.05,-0.09 -0.05,-0.15 0,-0.32 0,-0.63 0,-0.95 0,-0.02 0,-0.04 0.01,-0.07 z"
         id="path11079"
         inkscape:connector-curvature="0"
         style="fill:#e45333" />
      <path
         class="cls-275"
         d="m 956.33,699.87 c 0.02,0.16 0.02,0.67 0,0.8 -0.04,0.02 -0.07,-0.02 -0.1,-0.04 -0.13,-0.1 -0.28,-0.18 -0.43,-0.24 -0.13,-0.05 -0.27,-0.06 -0.41,-0.06 -0.08,0 -0.16,0.03 -0.22,0.08 -0.15,0.11 -0.16,0.29 -0.02,0.4 0.06,0.05 0.14,0.08 0.21,0.11 0.1,0.04 0.21,0.07 0.32,0.1 0.14,0.04 0.28,0.1 0.41,0.17 0.19,0.12 0.33,0.27 0.38,0.49 0.07,0.33 0.03,0.66 -0.14,0.96 -0.09,0.15 -0.22,0.26 -0.38,0.34 -0.19,0.1 -0.39,0.16 -0.61,0.17 -0.41,0.03 -0.78,-0.06 -1.14,-0.26 -0.01,0 -0.03,-0.02 -0.04,-0.02 0,0 -0.02,-0.01 -0.02,-0.02 -0.02,-0.11 -0.03,-0.58 -0.01,-0.81 0,-0.02 0,-0.04 0.02,-0.07 0.03,0.02 0.05,0.03 0.07,0.05 0.07,0.06 0.14,0.12 0.21,0.17 0.24,0.17 0.5,0.26 0.79,0.24 0.08,0 0.16,-0.03 0.23,-0.07 0.21,-0.13 0.22,-0.38 0.02,-0.51 -0.07,-0.05 -0.15,-0.08 -0.23,-0.11 -0.13,-0.05 -0.27,-0.08 -0.4,-0.12 -0.11,-0.04 -0.21,-0.08 -0.31,-0.13 -0.21,-0.11 -0.33,-0.3 -0.36,-0.53 -0.03,-0.19 -0.02,-0.37 0.03,-0.56 0.11,-0.4 0.38,-0.64 0.78,-0.75 0.19,-0.05 0.38,-0.05 0.57,-0.03 0.24,0.03 0.47,0.09 0.69,0.19 0.03,0.02 0.06,0.04 0.1,0.06 z"
         id="path11081"
         inkscape:connector-curvature="0"
         style="fill:#e45333" />
      <path
         class="cls-275"
         d="m 949.87,699.79 v 0.96 c 0,0 -0.06,-0.02 -0.08,-0.04 -0.18,-0.17 -0.4,-0.25 -0.64,-0.26 -0.49,-0.02 -0.86,0.29 -0.94,0.76 -0.03,0.18 -0.02,0.35 0.03,0.52 0.11,0.31 0.33,0.5 0.65,0.58 0.31,0.07 0.59,0 0.85,-0.19 0.04,-0.03 0.07,-0.06 0.11,-0.08 0.01,0.01 0.02,0.02 0.02,0.03 0.01,0.26 0,0.82 -0.01,0.95 -0.17,0.07 -0.35,0.12 -0.53,0.14 -0.57,0.06 -1.07,-0.1 -1.49,-0.48 -0.29,-0.26 -0.46,-0.58 -0.52,-0.97 -0.05,-0.29 -0.03,-0.57 0.06,-0.84 0.22,-0.67 0.68,-1.07 1.36,-1.22 0.37,-0.08 0.73,-0.03 1.08,0.11 0.02,0 0.04,0.02 0.06,0.04 z"
         id="path11083"
         inkscape:connector-curvature="0"
         style="fill:#e45333" />
      <path
         class="cls-275"
         d="m 935.92,699.72 c 0.15,-0.02 2.15,-0.02 2.3,0 0.04,0.11 0.02,0.23 0.02,0.34 0,0.12 0.01,0.23 -0.01,0.36 -0.12,0.03 -0.23,0 -0.35,0.01 -0.11,0 -0.22,0 -0.34,0 0,0.04 -0.02,0.08 -0.02,0.11 0,0.05 0,0.1 0,0.14 0,0.73 0,1.45 0,2.18 0,0.06 0,0.13 0,0.19 -0.04,0 -0.07,0.02 -0.1,0.02 -0.28,0.01 -0.62,0 -0.74,-0.02 -0.03,-0.04 -0.02,-0.1 -0.02,-0.15 0,-0.41 0,-0.82 0,-1.23 0,-0.35 0,-0.7 0,-1.06 0,-0.06 0,-0.11 0,-0.18 -0.24,-0.03 -0.47,0 -0.7,-0.02 -0.05,-0.11 -0.02,-0.23 -0.03,-0.35 0,-0.12 -0.01,-0.23 0.01,-0.36 z"
         id="path11085"
         inkscape:connector-curvature="0"
         style="fill:#e45333" />
      <path
         class="cls-275"
         d="m 942.3,699.72 c 0.15,-0.02 0.67,-0.02 0.83,0 0,0.03 0.02,0.05 0.03,0.08 0,0.05 0,0.1 0,0.14 0,0.97 0,1.94 0,2.91 0,0.07 0.01,0.14 -0.02,0.21 -0.02,0 -0.04,0.02 -0.06,0.02 -0.23,0 -0.47,0 -0.71,0 -0.02,0 -0.04,0 -0.07,-0.02 0,-0.05 0,-0.09 0,-0.14 0,-0.33 0,-0.66 0,-0.99 0,-0.68 0,-1.36 0,-2.03 0,-0.06 0,-0.12 0,-0.18 z"
         id="path11087"
         inkscape:connector-curvature="0"
         style="fill:#e45333" />
    </g>
    <g
       id="g11121">
      <path
         class="cls-191"
         d="m 906.89,710.88 c 0,-0.18 -0.06,-0.31 -0.19,-0.41 -0.12,-0.1 -0.35,-0.19 -0.68,-0.29 -0.33,-0.1 -0.58,-0.21 -0.78,-0.33 -0.37,-0.23 -0.55,-0.53 -0.55,-0.9 0,-0.33 0.13,-0.59 0.4,-0.8 0.27,-0.21 0.61,-0.32 1.03,-0.32 0.28,0 0.53,0.05 0.75,0.16 0.22,0.1 0.39,0.25 0.52,0.44 0.13,0.19 0.19,0.4 0.19,0.64 h -0.7 c 0,-0.21 -0.07,-0.38 -0.2,-0.5 -0.13,-0.12 -0.32,-0.18 -0.57,-0.18 -0.23,0 -0.41,0.05 -0.53,0.15 -0.13,0.1 -0.19,0.24 -0.19,0.41 0,0.15 0.07,0.27 0.21,0.37 0.14,0.1 0.36,0.2 0.68,0.29 0.31,0.09 0.57,0.2 0.76,0.32 0.19,0.12 0.33,0.26 0.42,0.41 0.09,0.15 0.13,0.34 0.13,0.54 0,0.34 -0.13,0.6 -0.39,0.8 -0.26,0.2 -0.61,0.3 -1.05,0.3 -0.29,0 -0.56,-0.05 -0.81,-0.16 -0.25,-0.11 -0.44,-0.26 -0.57,-0.45 -0.14,-0.19 -0.2,-0.41 -0.2,-0.67 h 0.7 c 0,0.23 0.08,0.41 0.23,0.53 0.15,0.13 0.37,0.19 0.65,0.19 0.24,0 0.43,-0.05 0.55,-0.15 0.12,-0.1 0.18,-0.23 0.18,-0.39 z"
         id="path11091"
         inkscape:connector-curvature="0"
         style="fill:#ffffff" />
      <path
         class="cls-191"
         d="m 909.12,707.88 1.17,3.1 1.16,-3.1 h 0.91 v 4.04 h -0.7 v -1.33 l 0.07,-1.78 -1.19,3.11 h -0.5 l -1.19,-3.11 0.07,1.78 v 1.33 h -0.7 v -4.04 h 0.91 z"
         id="path11093"
         inkscape:connector-curvature="0"
         style="fill:#ffffff" />
      <path
         class="cls-191"
         d="m 915.5,710.98 h -1.56 l -0.33,0.94 h -0.73 l 1.53,-4.04 h 0.63 l 1.53,4.04 h -0.73 l -0.33,-0.94 z m -1.37,-0.57 h 1.17 l -0.59,-1.68 -0.59,1.68 z"
         id="path11095"
         inkscape:connector-curvature="0"
         style="fill:#ffffff" />
      <path
         class="cls-191"
         d="m 918.5,710.37 h -0.78 v 1.55 h -0.7 v -4.04 h 1.42 c 0.47,0 0.83,0.1 1.08,0.31 0.25,0.21 0.38,0.51 0.38,0.91 0,0.27 -0.07,0.5 -0.2,0.68 -0.13,0.18 -0.31,0.32 -0.55,0.42 l 0.91,1.68 v 0.04 h -0.75 z m -0.78,-0.57 h 0.72 c 0.24,0 0.42,-0.06 0.55,-0.18 0.13,-0.12 0.2,-0.28 0.2,-0.49 0,-0.21 -0.06,-0.38 -0.18,-0.5 -0.12,-0.12 -0.31,-0.18 -0.55,-0.18 h -0.74 z"
         id="path11097"
         inkscape:connector-curvature="0"
         style="fill:#ffffff" />
      <path
         class="cls-191"
         d="m 923.34,708.45 h -1.26 v 3.47 h -0.7 v -3.47 h -1.25 v -0.57 h 3.2 v 0.57 z"
         id="path11099"
         inkscape:connector-curvature="0"
         style="fill:#ffffff" />
      <path
         class="cls-191"
         d="m 926.61,710.37 h -0.78 v 1.55 h -0.7 v -4.04 h 1.42 c 0.47,0 0.83,0.1 1.08,0.31 0.25,0.21 0.38,0.51 0.38,0.91 0,0.27 -0.07,0.5 -0.2,0.68 -0.13,0.18 -0.31,0.32 -0.55,0.42 l 0.91,1.68 v 0.04 h -0.75 z m -0.78,-0.57 h 0.72 c 0.24,0 0.42,-0.06 0.55,-0.18 0.13,-0.12 0.2,-0.28 0.2,-0.49 0,-0.21 -0.06,-0.38 -0.18,-0.5 -0.12,-0.12 -0.31,-0.18 -0.55,-0.18 h -0.74 z"
         id="path11101"
         inkscape:connector-curvature="0"
         style="fill:#ffffff" />
      <path
         class="cls-191"
         d="m 931.89,710.01 c 0,0.4 -0.07,0.74 -0.21,1.04 -0.14,0.3 -0.33,0.53 -0.59,0.69 -0.25,0.16 -0.55,0.24 -0.88,0.24 -0.33,0 -0.62,-0.08 -0.88,-0.24 -0.26,-0.16 -0.45,-0.39 -0.59,-0.68 -0.14,-0.3 -0.21,-0.64 -0.21,-1.02 v -0.23 c 0,-0.39 0.07,-0.74 0.21,-1.04 0.14,-0.3 0.34,-0.53 0.59,-0.69 0.25,-0.16 0.55,-0.24 0.88,-0.24 0.33,0 0.62,0.08 0.88,0.24 0.26,0.16 0.45,0.39 0.59,0.68 0.14,0.29 0.21,0.64 0.21,1.04 v 0.22 z m -0.7,-0.21 c 0,-0.45 -0.08,-0.79 -0.25,-1.03 -0.17,-0.24 -0.41,-0.36 -0.72,-0.36 -0.31,0 -0.54,0.12 -0.71,0.36 -0.17,0.24 -0.26,0.57 -0.26,1.01 v 0.23 c 0,0.44 0.09,0.79 0.26,1.03 0.17,0.24 0.41,0.36 0.72,0.36 0.31,0 0.55,-0.12 0.72,-0.36 0.17,-0.24 0.25,-0.58 0.25,-1.04 v -0.21 z"
         id="path11103"
         inkscape:connector-curvature="0"
         style="fill:#ffffff" />
      <path
         class="cls-191"
         d="m 932.59,711.92 v -4.04 h 1.38 c 0.46,0 0.8,0.09 1.04,0.27 0.24,0.18 0.36,0.46 0.36,0.82 0,0.19 -0.05,0.35 -0.15,0.5 -0.1,0.15 -0.25,0.26 -0.44,0.34 0.22,0.06 0.39,0.17 0.51,0.33 0.12,0.16 0.18,0.36 0.18,0.59 0,0.38 -0.12,0.67 -0.36,0.87 -0.24,0.2 -0.59,0.31 -1.04,0.31 h -1.47 z m 0.7,-2.34 h 0.69 c 0.22,0 0.39,-0.05 0.51,-0.15 0.12,-0.1 0.18,-0.24 0.18,-0.42 0,-0.2 -0.06,-0.34 -0.17,-0.43 -0.11,-0.09 -0.29,-0.13 -0.53,-0.13 h -0.68 z m 0,0.52 v 1.26 h 0.78 c 0.22,0 0.39,-0.05 0.52,-0.16 0.12,-0.11 0.19,-0.26 0.19,-0.46 0,-0.42 -0.21,-0.63 -0.64,-0.64 h -0.84 z"
         id="path11105"
         inkscape:connector-curvature="0"
         style="fill:#ffffff" />
      <path
         class="cls-191"
         d="m 939.4,710.01 c 0,0.4 -0.07,0.74 -0.21,1.04 -0.14,0.3 -0.33,0.53 -0.59,0.69 -0.25,0.16 -0.55,0.24 -0.88,0.24 -0.33,0 -0.62,-0.08 -0.88,-0.24 -0.26,-0.16 -0.45,-0.39 -0.59,-0.68 -0.14,-0.3 -0.21,-0.64 -0.21,-1.02 v -0.23 c 0,-0.39 0.07,-0.74 0.21,-1.04 0.14,-0.3 0.34,-0.53 0.59,-0.69 0.25,-0.16 0.55,-0.24 0.88,-0.24 0.33,0 0.62,0.08 0.88,0.24 0.26,0.16 0.45,0.39 0.59,0.68 0.14,0.29 0.21,0.64 0.21,1.04 v 0.22 z m -0.7,-0.21 c 0,-0.45 -0.08,-0.79 -0.25,-1.03 -0.17,-0.24 -0.41,-0.36 -0.72,-0.36 -0.31,0 -0.54,0.12 -0.71,0.36 -0.17,0.24 -0.26,0.57 -0.26,1.01 v 0.23 c 0,0.44 0.09,0.79 0.26,1.03 0.17,0.24 0.41,0.36 0.72,0.36 0.31,0 0.55,-0.12 0.72,-0.36 0.17,-0.24 0.25,-0.58 0.25,-1.04 v -0.21 z"
         id="path11107"
         inkscape:connector-curvature="0"
         style="fill:#ffffff" />
      <path
         class="cls-191"
         d="m 942.78,708.45 h -1.26 v 3.47 h -0.7 v -3.47 h -1.25 v -0.57 h 3.2 v 0.57 z"
         id="path11109"
         inkscape:connector-curvature="0"
         style="fill:#ffffff" />
      <path
         class="cls-191"
         d="m 946.67,710.88 c 0,-0.18 -0.06,-0.31 -0.19,-0.41 -0.12,-0.1 -0.35,-0.19 -0.68,-0.29 -0.33,-0.1 -0.58,-0.21 -0.78,-0.33 -0.37,-0.23 -0.55,-0.53 -0.55,-0.9 0,-0.33 0.13,-0.59 0.4,-0.8 0.27,-0.21 0.61,-0.32 1.03,-0.32 0.28,0 0.53,0.05 0.75,0.16 0.22,0.1 0.39,0.25 0.52,0.44 0.13,0.19 0.19,0.4 0.19,0.64 h -0.7 c 0,-0.21 -0.07,-0.38 -0.2,-0.5 -0.13,-0.12 -0.32,-0.18 -0.57,-0.18 -0.23,0 -0.41,0.05 -0.53,0.15 -0.13,0.1 -0.19,0.24 -0.19,0.41 0,0.15 0.07,0.27 0.21,0.37 0.14,0.1 0.36,0.2 0.68,0.29 0.31,0.09 0.57,0.2 0.76,0.32 0.19,0.12 0.33,0.26 0.42,0.41 0.09,0.15 0.13,0.34 0.13,0.54 0,0.34 -0.13,0.6 -0.39,0.8 -0.26,0.2 -0.61,0.3 -1.05,0.3 -0.29,0 -0.56,-0.05 -0.81,-0.16 -0.25,-0.11 -0.44,-0.26 -0.57,-0.45 -0.14,-0.19 -0.2,-0.41 -0.2,-0.67 h 0.7 c 0,0.23 0.08,0.41 0.23,0.53 0.15,0.13 0.37,0.19 0.65,0.19 0.24,0 0.43,-0.05 0.55,-0.15 0.12,-0.1 0.18,-0.23 0.18,-0.39 z"
         id="path11111"
         inkscape:connector-curvature="0"
         style="fill:#ffffff" />
      <path
         class="cls-191"
         d="m 950.35,710.12 h -1.66 v 1.24 h 1.94 v 0.56 h -2.64 v -4.04 h 2.62 v 0.57 h -1.92 v 1.12 h 1.66 z"
         id="path11113"
         inkscape:connector-curvature="0"
         style="fill:#ffffff" />
      <path
         class="cls-191"
         d="m 952.69,710.37 h -0.78 v 1.55 h -0.7 v -4.04 h 1.42 c 0.47,0 0.83,0.1 1.08,0.31 0.25,0.21 0.38,0.51 0.38,0.91 0,0.27 -0.07,0.5 -0.2,0.68 -0.13,0.18 -0.31,0.32 -0.55,0.42 l 0.91,1.68 v 0.04 h -0.75 z m -0.78,-0.57 h 0.72 c 0.24,0 0.42,-0.06 0.55,-0.18 0.13,-0.12 0.2,-0.28 0.2,-0.49 0,-0.21 -0.06,-0.38 -0.18,-0.5 -0.12,-0.12 -0.31,-0.18 -0.55,-0.18 h -0.74 z"
         id="path11115"
         inkscape:connector-curvature="0"
         style="fill:#ffffff" />
      <path
         class="cls-191"
         d="m 956.12,711.04 1.03,-3.16 h 0.77 l -1.45,4.04 h -0.68 l -1.45,-4.04 h 0.77 l 1.02,3.16 z"
         id="path11117"
         inkscape:connector-curvature="0"
         style="fill:#ffffff" />
      <path
         class="cls-191"
         d="m 961.56,710.01 c 0,0.4 -0.07,0.74 -0.21,1.04 -0.14,0.3 -0.33,0.53 -0.59,0.69 -0.25,0.16 -0.55,0.24 -0.88,0.24 -0.33,0 -0.62,-0.08 -0.88,-0.24 -0.26,-0.16 -0.45,-0.39 -0.59,-0.68 -0.14,-0.3 -0.21,-0.64 -0.21,-1.02 v -0.23 c 0,-0.39 0.07,-0.74 0.21,-1.04 0.14,-0.3 0.34,-0.53 0.59,-0.69 0.25,-0.16 0.55,-0.24 0.88,-0.24 0.33,0 0.62,0.08 0.88,0.24 0.26,0.16 0.45,0.39 0.59,0.68 0.14,0.29 0.21,0.64 0.21,1.04 v 0.22 z m -0.7,-0.21 c 0,-0.45 -0.08,-0.79 -0.25,-1.03 -0.17,-0.24 -0.41,-0.36 -0.72,-0.36 -0.31,0 -0.54,0.12 -0.71,0.36 -0.17,0.24 -0.26,0.57 -0.26,1.01 v 0.23 c 0,0.44 0.09,0.79 0.26,1.03 0.17,0.24 0.41,0.36 0.72,0.36 0.31,0 0.55,-0.12 0.72,-0.36 0.17,-0.24 0.25,-0.58 0.25,-1.04 v -0.21 z"
         id="path11119"
         inkscape:connector-curvature="0"
         style="fill:#ffffff" />
    </g>
  </g>
</svg>
